<?xml version="1.0" encoding="utf-8"?>
<!-- Generator: Adobe Illustrator 19.2.0, SVG Export Plug-In . SVG Version: 6.00 Build 0)  -->
<svg version="1.1" id="Layer_1" xmlns="http://www.w3.org/2000/svg" xmlns:xlink="http://www.w3.org/1999/xlink" x="0px" y="0px"
	 viewBox="0 0 62.4 62.4" style="enable-background:new 0 0 62.4 62.4;" xml:space="preserve">
<path d="M47.1,12.6l-6.9-3.8c-2.2-1.2-3.8-2.1-4.6-2.6c-2-1.2-3.9-1.2-6.3,0c-3.4,1.6-14.9,7.4-14.9,7.4c-0.3,0.1-5.4,1.7-5.8,7.2
	c-0.3,4.7,0,20.1,0,20.8c0,0.2,0.1,2.4,2.6,4.1c2,1.4,18.7,10.8,19.4,11.2l0.6,0.3l22.7-11.8V19.2C54.1,18.2,53.5,15.8,47.1,12.6z
	 M32,53.9c0-7.2,0-17,0-19.7c-0.1-4.6,0.5-7.6-4.4-9.7c-2.4-1.1-8.6-4.5-14.2-7.7c0.9-0.7,1.8-1,1.9-1c0,0,11.6-5.8,15.1-7.4
	c0.9-0.4,1.6-0.6,2.2-0.6c0.7,0,1.2,0.2,1.8,0.6c0.8,0.4,2.4,1.3,4.6,2.6l6.9,3.9c2.3,1.2,3.7,2.1,4.5,2.8l-16.6,8.7v15.3h0
	c0,0.7,0.5,1.2,1.2,1.2c0.7,0,1.2-0.5,1.2-1.2V27.7l15.3-8l0,24.1L32,53.9z"/>
</svg>
