<?xml version="1.0" encoding="utf-8"?>
<!-- Generator: Adobe Illustrator 19.2.0, SVG Export Plug-In . SVG Version: 6.00 Build 0)  -->
<svg version="1.1" id="Layer_1" xmlns="http://www.w3.org/2000/svg" xmlns:xlink="http://www.w3.org/1999/xlink" x="0px" y="0px"
	 viewBox="0 0 62.4 62.4" style="enable-background:new 0 0 62.4 62.4;" xml:space="preserve">
<path d="M50.1,9.1l-8.2-4.6c-2.6-1.5-4.6-2.6-5.5-3.1C34,0,31.8,0,29,1.3c-4.1,1.9-17.8,8.8-17.8,8.8c-0.3,0.1-6.4,2-6.9,8.6
	c-0.4,5.7,0,24,0,24.8c0,0.3,0.1,2.9,3.1,4.8c2.4,1.6,22.3,12.9,23.1,13.4l0.7,0.4L58.3,48V16.9C58.5,15.7,57.7,12.9,50.1,9.1z
	 M32.1,58.3c0-8.6,0.1-20.2,0-23.5c-0.2-5.4,0.6-9.1-5.2-11.6C24,21.9,16.6,17.8,10,14c1.1-0.8,2.1-1.1,2.3-1.2
	c0,0,13.9-6.9,17.9-8.9c1.1-0.5,1.9-0.7,2.6-0.7c0.8,0,1.5,0.3,2.2,0.7c0.9,0.5,2.9,1.6,5.5,3.1l8.2,4.6c2.8,1.4,4.4,2.5,5.3,3.3
	L34.3,25.3v18.2h0c0,0.8,0.6,1.5,1.5,1.5c0.8,0,1.5-0.6,1.5-1.5V27.1l18.3-9.5l0,28.7L32.1,58.3z"/>
</svg>
