<?xml version="1.0" encoding="utf-8"?>
<!-- Generator: Adobe Illustrator 19.2.0, SVG Export Plug-In . SVG Version: 6.00 Build 0)  -->
<svg version="1.1" id="Layer_1" xmlns="http://www.w3.org/2000/svg" xmlns:xlink="http://www.w3.org/1999/xlink" x="0px" y="0px"
	 viewBox="0 0 62.4 62.4" style="enable-background:new 0 0 62.4 62.4;" xml:space="preserve">
<g>
	<path d="M49.2,24.6c0-0.3,0-0.6,0-0.9c0-9.1-7.4-16.5-16.5-16.5c-9.1,0-16.5,7.4-16.5,16.5c0,0.1,0,0.2,0,0.3
		c-5.4,2.7-9.1,8.3-9.1,14.7c0,9.1,7.4,16.5,16.5,16.5c3.1,0,6-0.9,8.5-2.4c2.5,1.5,5.4,2.4,8.5,2.4c9.1,0,16.5-7.4,16.5-16.5
		C57.1,32.7,54,27.5,49.2,24.6z M32.2,49.1c-2.9-2.4-4.8-5.9-5-9.9c1.7,0.6,3.6,1,5.6,1c1.5,0,2.9-0.2,4.3-0.6
		C36.9,43.4,35,46.8,32.2,49.1z M32.8,37.2c-1.9,0-3.7-0.4-5.3-1.1c0.6-3.1,2.3-5.9,4.7-7.8c2.5,2,4.2,5,4.8,8.3
		C35.7,36.9,34.3,37.2,32.8,37.2z M24.8,34.5c-2.7-2-4.7-5.1-5.2-8.6c1.3-0.4,2.7-0.7,4.2-0.7c2.1,0,4.1,0.5,5.8,1.4
		C27.3,28.7,25.6,31.4,24.8,34.5z M34.8,26.6c1.8-0.9,3.7-1.4,5.8-1.4c1.9,0,3.7,0.4,5.3,1.1c-0.7,3.8-3.1,6.9-6.2,8.9
		C39.1,31.8,37.3,28.8,34.8,26.6z M32.8,10.3c7.3,0,13.2,5.8,13.4,13c-1.7-0.6-3.6-1-5.6-1c-3.1,0-6,0.9-8.5,2.4
		c-2.5-1.5-5.4-2.4-8.5-2.4c-1.5,0-2.9,0.2-4.3,0.6C19.9,15.8,25.7,10.3,32.8,10.3z M23.7,52.1c-7.4,0-13.5-6-13.5-13.5
		c0-4.9,2.6-9.1,6.5-11.5c1,4.5,3.7,8.2,7.5,10.6c0,0.3,0,0.6,0,0.9c0,4.8,2.1,9.1,5.3,12.1C27.8,51.6,25.8,52.1,23.7,52.1z
		 M40.7,52.1c-2.1,0-4.1-0.5-5.8-1.4c3.3-3,5.3-7.3,5.3-12.1c0-0.1,0-0.2,0-0.3c4.2-2.1,7.3-5.9,8.6-10.5c3.3,2.5,5.4,6.4,5.4,10.8
		C54.1,46.1,48.1,52.1,40.7,52.1z"/>
	<g>
		<path d="M31.6,17.8v3.4h-1.4v-8.6h2.4c1.1,0,1.9,0.2,2.5,0.6s0.8,1,0.8,1.9c0,1.1-0.6,1.8-1.7,2.3l2.4,3.8h-1.6L33,17.8H31.6z
			 M31.6,16.6h1c0.7,0,1.1-0.1,1.4-0.4s0.4-0.6,0.4-1.1c0-0.5-0.2-0.8-0.5-1s-0.8-0.3-1.4-0.3h-0.9V16.6z"/>
	</g>
	<g>
		<path d="M18.1,41.1h3.2v4.3c-0.5,0.2-1,0.3-1.5,0.4s-1,0.1-1.5,0.1c-1.3,0-2.3-0.4-3-1.2s-1.1-1.9-1.1-3.2c0-1.4,0.4-2.5,1.2-3.2
			s1.9-1.2,3.3-1.2c0.9,0,1.7,0.2,2.5,0.5l-0.5,1.2c-0.7-0.3-1.4-0.5-2.1-0.5c-0.9,0-1.6,0.3-2.2,0.9s-0.8,1.4-0.8,2.4
			c0,1,0.2,1.8,0.7,2.4s1.2,0.8,2.1,0.8c0.5,0,0.9-0.1,1.5-0.2v-2.2h-1.8V41.1z"/>
	</g>
	<g>
		<path d="M43.8,37.2h2.5c1.2,0,2,0.2,2.6,0.5s0.8,0.9,0.8,1.6c0,0.5-0.1,0.9-0.4,1.2s-0.6,0.5-1.1,0.6v0.1c0.6,0.1,1,0.3,1.3,0.7
			s0.4,0.8,0.4,1.4c0,0.8-0.3,1.4-0.8,1.8s-1.3,0.7-2.2,0.7h-3.1V37.2z M45.2,40.7h1.3c0.6,0,1-0.1,1.3-0.3s0.4-0.5,0.4-0.9
			c0-0.4-0.1-0.7-0.4-0.9s-0.8-0.3-1.4-0.3h-1.2V40.7z M45.2,41.8v2.7h1.5c0.6,0,1-0.1,1.3-0.3s0.4-0.6,0.4-1.1c0-0.4-0.2-0.8-0.5-1
			s-0.8-0.3-1.4-0.3H45.2z"/>
	</g>
</g>
</svg>
