<?xml version="1.0" encoding="utf-8"?>
<!-- Generator: Adobe Illustrator 19.2.0, SVG Export Plug-In . SVG Version: 6.00 Build 0)  -->
<svg version="1.1" id="Layer_1" xmlns="http://www.w3.org/2000/svg" xmlns:xlink="http://www.w3.org/1999/xlink" x="0px" y="0px"
	 viewBox="0 0 127.4 202.6" style="enable-background:new 0 0 127.4 202.6;" xml:space="preserve">
<style type="text/css">
	.st0{opacity:0.16;}
	.st1{fill:none;}
	.st2{fill:none;stroke:#000000;stroke-miterlimit:10;}
</style>
<g id="PTHx5B.tif" class="st0">
	
		<image style="overflow:visible;" width="63" height="386" id="Layer_1_1_" xlink:href="27EF4374C80DE138.png"  transform="matrix(0.5 0 0 0.5 47.9676 4.8093)">
	</image>
</g>
<path class="st1" d="M57.1,45.9c1.5,0,12.3,0.1,13.4,0c0.2,0,0.4,0,0.4-0.1L70.9,45c0-0.1,0.2-9,0-10.8c-1-0.1-2.1-0.2-3.6-0.2h-7.6
	c-0.1,0-1.2-0.2-2.8,0.2v10.4C56.9,45.4,57,45.7,57.1,45.9z"/>
<path class="st1" d="M59.8,33l7.5,0c1.3,0,2.3,0.1,3.3,0.1c-0.6-1-1.7-2.1-2.2-2.5l0,0c-1.2-1.2-4.6-1.3-6.1-1.4
	c-2-0.1-3.9,2.3-3.9,2.4c0,0,0,0,0,0c0,0-0.3,0.6-0.9,1.2c-0.1,0.1-0.1,0.2-0.2,0.3C58.7,32.8,59.7,32.9,59.8,33z"/>
<path d="M73.4,45.6l-0.1-0.8c0-0.4,0.1-8.3,0-10.7c0-0.2,0-0.3,0-0.4c0-0.2-0.1-0.4-0.2-0.6c-0.6-1.5-2.4-3.2-2.7-3.4
	c0,0,0,0-0.1-0.1c0.9-0.9,1.7-2.3,1.9-4.1c0.5-4.3-3.5-2.5-5.6-3.8c-2.1-1.2-3-0.4-3.4-0.1s-0.9,0.4-1.2,0c-0.2-0.4-0.8-1.2-1.2-1.9
	c-0.4-0.7-1.2-1.3-1.7-1.5c-0.5-0.1-1.3-0.1-1.8,0.1s-0.7,1.3-0.6,2.3s0.6,2.1,1,2.4s1.5,0.2,2,1.1c0.4,0.9,0.2,2.3-0.1,3.6
	c-0.2,0.8,0,1.2,0.6,1.6c-0.8,0.7-1.3,1.3-1.3,1.4c0,0-0.3,0.6-0.8,1.1c-0.3,0.4-0.6,0.9-0.7,1.2c-0.1,0.3-0.2,0.5-0.2,0.5l0,0.6
	l0,10.1c0,1.7,0.7,2.1,0.9,2.2l0.2,0c0.3,0,5.6,0,9.5,0c2,0,3.7,0,4.1,0c0.5,0,1.1-0.1,1.3-0.6C73.5,45.9,73.5,45.7,73.4,45.6z
	 M59,32.6c0.5-0.6,0.9-1.2,0.9-1.2c0,0,0,0,0,0c0,0,0.6-0.7,1.4-1.4c0.1,0.1,0.3,0.1,0.4,0.2c1.4,0.7,3.7,1.2,5.2,1.1
	c0.7-0.1,1.8-0.4,2.8-1.1c0,0,0.1,0.1,0.2,0.1l0,0c0.5,0.4,1.6,1.5,2.2,2.5c-0.9-0.1-2-0.1-3.3-0.1l-7.5,0c-0.1,0-1.1-0.1-2.5,0.1
	C58.8,32.8,58.9,32.7,59,32.6z M72.4,45.6c-0.1,0-0.2,0-0.4,0.1c-1.1,0.1-11.8,0-13.4,0c-0.1-0.1-0.3-0.5-0.3-1.3V34
	c1.6-0.4,2.8-0.2,2.8-0.2h7.6c1.5,0,2.6,0.1,3.6,0.2c0.1,1.9,0,10.7,0,10.8L72.4,45.6z"/>
<path d="M70.1,59.7l-2.8-1.6c-0.9-0.5-1.6-0.9-1.9-1.1c-0.8-0.5-1.6-0.5-2.6,0c-1.4,0.7-6.1,3-6.1,3c-0.1,0-2.2,0.7-2.4,2.9
	c-0.1,1.9,0,8.3,0,8.5c0,0.1,0,1,1.1,1.7c0.8,0.6,7.7,4.4,8,4.6l0.2,0.1l9.3-4.9V62.4C73,62,72.7,61,70.1,59.7z M63.9,76.7
	c0-3,0-7,0-8.1c-0.1-1.9,0.2-3.1-1.8-4c-1-0.4-3.5-1.8-5.8-3.1c0.4-0.3,0.7-0.4,0.8-0.4c0,0,4.8-2.4,6.2-3.1
	c0.4-0.2,0.6-0.2,0.9-0.2c0.3,0,0.5,0.1,0.7,0.2c0.3,0.2,1,0.6,1.9,1.1l2.8,1.6c1,0.5,1.5,0.9,1.8,1.2l-6.8,3.6v6.3h0
	c0,0.3,0.2,0.5,0.5,0.5c0.3,0,0.5-0.2,0.5-0.5v-5.7l6.3-3.3l0,9.9L63.9,76.7z"/>
<g>
	<path class="st2" d="M70.9,85.5C70.9,85.5,70.9,85.5,70.9,85.5l0,22.5c0,0,0,0,0,0H55.5c0,0,0,0,0,0V85.5c0,0,0,0,0,0H70.9z"/>
</g>
<line class="st2" x1="55.5" y1="93" x2="70.9" y2="93"/>
<line class="st2" x1="64.6" y1="93.4" x2="64.6" y2="85.3"/>
<line class="st2" x1="60.7" y1="108.2" x2="60.7" y2="102.2"/>
<line class="st2" x1="66.2" y1="108.2" x2="66.2" y2="102.2"/>
<line class="st2" x1="55.5" y1="101.8" x2="70.9" y2="101.8"/>
<path d="M100.5,116.9l-0.8,0v0h-3.4v0l-6.8,0l-0.4-1.1c-0.2-0.6-0.6-0.8-0.8-0.9c-0.3-0.1-0.5-0.1-0.7,0l-0.2-0.6l-1,0.4l0.8,2.2h0
	c-0.1,0-1-0.1-1.6,0.4c-0.3,0.3-0.5,0.6-0.5,1.1v21.2l11.3,0v0h3.4v0l0.8,0c0.1,0,0.8,0,1.4-0.5c0.4-0.4,0.6-0.9,0.6-1.5v-18.2
	C102.4,118.5,102,116.9,100.5,116.9z M87.8,115.7c0.1,0,0.1,0,0.2,0c0.1,0,0.3,0.2,0.3,0.4l0.3,0.8l-0.3,0L87.8,115.7z M96.3,138.6
	l-10.3,0v-20.2c0-0.2,0.1-0.3,0.1-0.3c0.2-0.1,0.5-0.2,0.7-0.2c0.1,0,0.1,0,0.2,0h0.4l6.1,16.4l1,1.1l0-1.5l-6-16.1h7.7V138.6z
	 M98.7,138.6l-1.4,0v-20.7h1.4V138.6z M101.4,137.6c0,0.4-0.1,0.6-0.3,0.8c-0.2,0.2-0.6,0.2-0.6,0.2l0,0l-0.8,0v-20.7h0.8
	c0.9,0,0.9,1.4,0.9,1.4V137.6z"/>
<path d="M73.7,158.8c-0.5,0-1,0.1-1.6,0.2l-2.8-8l0,0l-1.1-3.1c-0.1-0.1-0.5-0.9-1.2-0.9c0,0,0,0,0,0c-0.1,0-0.2,0-0.3,0.1
	c-0.3,0.1-0.6,0.4-0.8,0.8c-0.1,0.1-0.1,0.2-0.2,0.4c0,0.1-0.1,0.1-0.1,0.2c0,0.1-0.1,0.2-0.1,0.3c-0.1,0.1-0.1,0.2-0.2,0.4
	c0,0.1-0.1,0.2-0.1,0.2c-0.1,0.2-0.2,0.3-0.2,0.5c0,0,0,0.1-0.1,0.1l-0.2,0.4c0,0,0,0,0,0l-0.3,0.6l0,0c-0.5,1-1,2.2-1.6,3.7
	l-1.1-2.1c-0.1-0.1-0.4-0.7-1-0.7h0c-0.3,0-0.6,0.1-1,0.7c0,0.1-0.1,0.2-0.2,0.3c0,0,0,0.1,0,0.1c-0.1,0.1-0.1,0.3-0.2,0.4
	c0,0,0,0.1,0,0.1c-0.3,0.6-0.7,1.3-1.1,2.1l-0.2,0.4l0,0c-0.9,1.9-2,3.9-2.4,4.7c-1.3-0.3-2.3-0.5-2.3-0.5l0,0c0,0,0,0-0.1,0
	c-0.3,0-0.5,0.2-0.5,0.5c0,0.3,0.2,0.5,0.4,0.5c0.7,0.2,4.9,1.2,8.3,1.2c0.2,0,0.3,0,0.5,0c0.2,0,0.4,0,0.5,0c1.5,0,3.7-0.7,5.8-1.3
	c0.7-0.2,1.4-0.4,2-0.6l0,0c1.5-0.4,2.8-0.7,3.6-0.7v0c0.3,0,0.5-0.2,0.5-0.5S74,158.8,73.7,158.8z M67,148.1c0.1,0,0.2,0.2,0.3,0.3
	l0.4,1.2c-0.3,0-0.5-0.1-0.8-0.1c-0.2,0-0.5,0-0.7,0c0-0.1,0.1-0.1,0.1-0.2c0,0,0-0.1,0-0.1c0-0.1,0.1-0.1,0.1-0.2
	c0.1-0.2,0.2-0.4,0.3-0.5c0,0,0,0,0,0c0-0.1,0.1-0.1,0.1-0.2C66.9,148.2,67,148.1,67,148.1z M60.6,153c0,0,0.1,0.1,0.1,0.1l0.7,1.2
	c-0.5,0-1,0-1.5,0.1c0.1-0.2,0.2-0.4,0.3-0.6c0,0,0,0,0,0c0.1-0.1,0.1-0.2,0.2-0.3c0,0,0-0.1,0.1-0.1c0-0.1,0.1-0.2,0.1-0.2
	C60.5,153.1,60.5,153,60.6,153z M59.2,155.6c0.9-0.3,1.8-0.4,2.7-0.2l0.3,0.5c-0.2,0.5-0.3,0.5-1.3,1.1c0.4-0.2,1.9,0.1,2.3-0.9
	l0.1-0.2c1.1-2.4,1.8-4,2.3-5.2c0.8-0.2,1.6-0.2,2.5,0l3,8.5c-0.4,0.1-0.7,0.2-1.2,0.3c-1-0.1-2.1-0.1-3.2,0c-0.6,0-1.2,0.1-1.8,0.1
	c-0.2,0-0.5,0-0.8,0l-3.1,0.2c-1.7,0.2-3.2,0.6-4.3,1.1l-0.2,0.1c0,0,0,0,0,0C57.1,159.9,58.3,157.5,59.2,155.6z M61.8,161.4
	c-0.9,0-1.9-0.1-2.8-0.2c0.7-0.2,1.4-0.3,2.2-0.4l3.1-0.2c0.7,0,1.5,0,2.2-0.1C64.8,161,63.1,161.4,61.8,161.4z"/>
</svg>
