<?xml version="1.0" encoding="utf-8"?>
<!-- Generator: Adobe Illustrator 19.2.0, SVG Export Plug-In . SVG Version: 6.00 Build 0)  -->
<svg version="1.1" id="Layer_1" xmlns="http://www.w3.org/2000/svg" xmlns:xlink="http://www.w3.org/1999/xlink" x="0px" y="0px"
	 viewBox="0 0 62.4 62.4" style="enable-background:new 0 0 62.4 62.4;" xml:space="preserve">
<path d="M56.2,41.3c-1.1,0-2.5,0.2-4,0.5l-6.8-19.4l0,0l-2.6-7.5c-0.2-0.4-1.2-2.1-2.9-2.1c0,0,0,0,0,0c-0.3,0-0.5,0-0.8,0.1
	c-0.8,0.3-1.4,0.9-2,2c-0.1,0.2-0.3,0.6-0.5,0.9c-0.1,0.2-0.2,0.3-0.3,0.5c-0.1,0.2-0.2,0.4-0.3,0.7c-0.1,0.3-0.3,0.6-0.4,0.9
	c-0.1,0.2-0.2,0.4-0.3,0.6c-0.2,0.4-0.4,0.8-0.6,1.2c-0.1,0.1-0.1,0.2-0.1,0.3L34.2,21c0,0,0,0.1,0,0.1l-0.7,1.4l0,0
	c-1.1,2.4-2.4,5.4-4,8.9l-2.8-5.1c-0.2-0.3-1-1.7-2.4-1.7h0c-0.6,0-1.6,0.3-2.3,1.7c-0.1,0.2-0.2,0.4-0.4,0.8c0,0.1-0.1,0.1-0.1,0.2
	c-0.2,0.3-0.3,0.6-0.5,1c0,0.1-0.1,0.1-0.1,0.2c-0.7,1.4-1.6,3.1-2.6,5.1l-0.5,1l0,0c-2.3,4.5-4.7,9.5-5.7,11.4
	c-3.3-0.6-5.6-1.2-5.6-1.2l0,0c-0.1,0-0.1,0-0.2,0c-0.7,0-1.2,0.5-1.2,1.2c0,0.6,0.5,1.1,1.1,1.2c1.7,0.4,12,2.8,20,2.8
	c0.4,0,0.8,0,1.1-0.1c0.4,0,0.9,0.1,1.3,0.1c3.7,0,9-1.6,14-3.2c1.7-0.5,3.3-1,4.9-1.5l0,0c3.6-1,6.7-1.7,8.7-1.7v0
	c0.7,0,1.2-0.5,1.2-1.2S56.9,41.3,56.2,41.3z M39.9,15.2c0.2,0,0.6,0.5,0.7,0.7l1.1,3c-0.6-0.1-1.3-0.1-2-0.1c-0.6,0-1.2,0-1.8,0.1
	c0.1-0.1,0.1-0.3,0.2-0.4c0-0.1,0.1-0.2,0.1-0.2c0.1-0.1,0.1-0.3,0.2-0.4c0.2-0.5,0.4-0.9,0.6-1.2c0,0,0-0.1,0-0.1
	c0.1-0.2,0.2-0.3,0.2-0.5C39.6,15.4,39.9,15.2,39.9,15.2z M24.3,27.1c0.1,0.1,0.2,0.2,0.3,0.4l1.6,2.9c-1.2-0.1-2.5,0-3.7,0.2
	c0.3-0.5,0.5-1.1,0.8-1.5c0,0,0,0,0-0.1c0.1-0.3,0.3-0.5,0.4-0.7c0-0.1,0.1-0.2,0.1-0.2c0.1-0.2,0.2-0.4,0.3-0.6
	C24.2,27.3,24.3,27.2,24.3,27.1z M21.1,33.4c2.1-0.7,4.3-0.8,6.6-0.4l0.6,1.1c-0.5,1.1-0.8,1.3-3.2,2.6c1.1-0.5,4.6,0.2,5.7-2.2
	l0.2-0.5c2.6-5.8,4.4-9.8,5.7-12.6c1.9-0.5,4-0.5,6,0l7.3,20.7C49,42.5,48,42.8,47.1,43c-2.3-0.3-5-0.2-7.9-0.1
	C37.8,43,36.3,43,34.9,43c-0.6,0-1.2,0-1.9,0l-7.4,0.5c-4.2,0.5-7.6,1.4-10.5,2.7l-0.4,0.2c0,0,0,0-0.1,0
	C15.9,43.8,18.8,38,21.1,33.4z M27.3,47.6c-2.3-0.1-4.6-0.3-6.8-0.6c1.6-0.4,3.4-0.7,5.3-1l7.4-0.5c1.7,0,3.6-0.1,5.4-0.1
	C34.6,46.5,30.5,47.4,27.3,47.6z"/>
</svg>
