<?xml version="1.0" encoding="utf-8"?>
<!-- Generator: Adobe Illustrator 19.2.0, SVG Export Plug-In . SVG Version: 6.00 Build 0)  -->
<svg version="1.1" id="Layer_1" xmlns="http://www.w3.org/2000/svg" xmlns:xlink="http://www.w3.org/1999/xlink" x="0px" y="0px"
	 viewBox="0 0 62.4 62.4" style="enable-background:new 0 0 62.4 62.4;" xml:space="preserve">
<path d="M49.3,59.9l-0.1-1.7c0-0.8,0.3-18.3,0.1-23.4c0-0.4,0-0.7-0.1-0.9c0-0.5-0.2-0.9-0.3-1.4c-1.2-3.4-5.2-6.9-5.8-7.5
	c0,0-0.1-0.1-0.1-0.1c2.1-2,3.8-4.9,4.2-9c1.1-9.5-7.6-5.6-12.2-8.3c-4.6-2.7-6.6-1-7.5-0.2s-2.1,0.8-2.6,0
	c-0.5-0.8-1.7-2.6-2.6-4.1c-0.9-1.4-2.6-2.9-3.8-3.2c-1.2-0.3-2.9-0.2-3.9,0.3s-1.6,2.8-1.4,5.1s1.2,4.7,2.3,5.3
	c1.1,0.6,3.4,0.5,4.3,2.4c1,1.9,0.4,5.1-0.3,7.9c-0.4,1.7,0.1,2.6,1.2,3.4c-1.7,1.4-2.7,2.8-2.9,3c0,0-0.7,1.2-1.7,2.4
	c-0.7,0.8-1.2,1.9-1.5,2.7c-0.2,0.6-0.3,1-0.4,1l0,1.4l0,22.2c0,3.8,1.6,4.7,1.9,4.8l0.4,0.1c0.7,0,12.3,0.1,20.8,0.1
	c4.5,0,8.2,0,9-0.1c1-0.1,2.4-0.3,2.9-1.3C49.4,60.7,49.4,60.2,49.3,59.9z M17.7,31.5c1.1-1.3,1.9-2.6,1.9-2.6c0,0,0,0,0,0
	c0,0,1.2-1.6,3-3c0.3,0.2,0.6,0.3,0.9,0.5c3,1.6,8.2,2.7,11.4,2.5c1.5-0.1,3.9-0.8,6.2-2.5c0.1,0.1,0.3,0.2,0.4,0.3l0.1,0.1
	c1.1,0.9,3.5,3.3,4.7,5.5c-2-0.2-4.4-0.3-7.1-0.3l-16.5,0c-0.2,0-2.3-0.3-5.4,0.2C17.4,31.9,17.5,31.6,17.7,31.5z M47.1,60
	c-0.2,0.1-0.5,0.1-1,0.1c-2.3,0.2-25.9,0-29.3,0c-0.2-0.3-0.6-1-0.6-2.7V34.5c3.5-0.8,6.1-0.5,6.2-0.5h16.6c3.2,0,5.8,0.2,7.9,0.4
	c0.3,4.1,0,23.5,0,23.8L47.1,60z"/>
</svg>
