<?xml version="1.0" encoding="utf-8"?>
<!-- Generator: Adobe Illustrator 19.2.0, SVG Export Plug-In . SVG Version: 6.00 Build 0)  -->
<svg version="1.1" id="Layer_1" xmlns="http://www.w3.org/2000/svg" xmlns:xlink="http://www.w3.org/1999/xlink" x="0px" y="0px"
	 viewBox="0 0 62.4 62.4" style="enable-background:new 0 0 62.4 62.4;" xml:space="preserve">
<path d="M46.3,9.2l-1.8,0v0h-7.6v0l-15.1,0l-0.9-2.4c-0.5-1.3-1.3-1.8-1.9-2c-0.6-0.2-1.1-0.1-1.6,0L17,3.5l-2.2,0.8l1.8,4.9h0
	c-0.2,0-2.3-0.2-3.6,1c-0.7,0.6-1,1.4-1,2.4v46.9l25,0v0h7.6v0l1.8,0c0.3,0,1.8,0,3-1.1c0.8-0.8,1.3-1.9,1.3-3.3V14.6
	C50.5,12.7,49.6,9.2,46.3,9.2z M18.1,6.5c0.1,0,0.3,0,0.4,0c0.3,0.1,0.6,0.4,0.8,0.9l0.7,1.8l-0.8,0L18.1,6.5z M36.9,57.2l-22.7,0
	V12.5c0-0.4,0.1-0.6,0.3-0.7c0.4-0.3,1.1-0.4,1.6-0.4c0.1,0,0.3,0,0.4,0h1l13.5,36.3l2.2,2.5l0.1-3.3L19.9,11.4h16.9V57.2z
	 M42.2,57.2l-3.1,0V11.4h3.1V57.2z M48.3,55c0,0.8-0.2,1.4-0.6,1.7c-0.5,0.5-1.3,0.5-1.4,0.5l0,0l-1.9,0V11.4h1.8c2,0,2,3,2,3.1V55z
	"/>
</svg>
